<mxfile host="app.diagrams.net" agent="Mozilla/5.0 (Windows NT 10.0; Win64; x64) AppleWebKit/537.36 (KHTML, like Gecko) Chrome/92.0.4515.131 Safari/537.36 Edg/92.0.902.67" version="24.7.5">
  <diagram id="6a731a19-8d31-9384-78a2-239565b7b9f0" name="Page-1">
    <mxGraphModel dx="1205" dy="1519" grid="1" gridSize="10" guides="1" tooltips="1" connect="1" arrows="1" fold="1" page="1" pageScale="1" pageWidth="1169" pageHeight="827" background="none" math="0" shadow="0">
      <root>
        <mxCell id="0" />
        <mxCell id="1" parent="0" />
        <mxCell id="8XYBbkvYi0lceqrSNJq4-55" value="" style="shape=umlActor;verticalLabelPosition=bottom;verticalAlign=top;html=1;outlineConnect=0;" vertex="1" parent="1">
          <mxGeometry x="140" y="220" width="30" height="60" as="geometry" />
        </mxCell>
        <mxCell id="8XYBbkvYi0lceqrSNJq4-58" value="" style="edgeStyle=orthogonalEdgeStyle;rounded=0;orthogonalLoop=1;jettySize=auto;html=1;" edge="1" parent="1" source="8XYBbkvYi0lceqrSNJq4-56" target="8XYBbkvYi0lceqrSNJq4-57">
          <mxGeometry relative="1" as="geometry" />
        </mxCell>
        <mxCell id="8XYBbkvYi0lceqrSNJq4-56" value="&lt;b&gt;query&lt;/b&gt;" style="text;html=1;align=center;verticalAlign=middle;whiteSpace=wrap;rounded=0;" vertex="1" parent="1">
          <mxGeometry x="190" y="230" width="60" height="30" as="geometry" />
        </mxCell>
        <mxCell id="8XYBbkvYi0lceqrSNJq4-60" value="" style="edgeStyle=orthogonalEdgeStyle;rounded=0;orthogonalLoop=1;jettySize=auto;html=1;" edge="1" parent="1" source="8XYBbkvYi0lceqrSNJq4-57" target="8XYBbkvYi0lceqrSNJq4-59">
          <mxGeometry relative="1" as="geometry" />
        </mxCell>
        <mxCell id="8XYBbkvYi0lceqrSNJq4-63" value="" style="edgeStyle=orthogonalEdgeStyle;rounded=0;orthogonalLoop=1;jettySize=auto;html=1;entryX=0;entryY=0.5;entryDx=0;entryDy=0;exitX=1;exitY=0.5;exitDx=0;exitDy=0;" edge="1" parent="1" source="8XYBbkvYi0lceqrSNJq4-57" target="8XYBbkvYi0lceqrSNJq4-62">
          <mxGeometry relative="1" as="geometry" />
        </mxCell>
        <mxCell id="8XYBbkvYi0lceqrSNJq4-65" style="edgeStyle=orthogonalEdgeStyle;rounded=0;orthogonalLoop=1;jettySize=auto;html=1;entryX=0;entryY=0.5;entryDx=0;entryDy=0;" edge="1" parent="1" source="8XYBbkvYi0lceqrSNJq4-57" target="8XYBbkvYi0lceqrSNJq4-64">
          <mxGeometry relative="1" as="geometry" />
        </mxCell>
        <mxCell id="8XYBbkvYi0lceqrSNJq4-67" style="edgeStyle=orthogonalEdgeStyle;rounded=0;orthogonalLoop=1;jettySize=auto;html=1;entryX=0;entryY=0.5;entryDx=0;entryDy=0;" edge="1" parent="1" source="8XYBbkvYi0lceqrSNJq4-57" target="8XYBbkvYi0lceqrSNJq4-66">
          <mxGeometry relative="1" as="geometry" />
        </mxCell>
        <mxCell id="8XYBbkvYi0lceqrSNJq4-57" value="查询改写" style="whiteSpace=wrap;html=1;" vertex="1" parent="1">
          <mxGeometry x="300" y="215" width="120" height="60" as="geometry" />
        </mxCell>
        <mxCell id="8XYBbkvYi0lceqrSNJq4-59" value="方法：&lt;br&gt;&lt;span style=&quot;white-space: pre;&quot;&gt;&#x9;&lt;/span&gt;1.已训练大模型（gpt）&lt;div&gt;&lt;span style=&quot;white-space: pre;&quot;&gt;&#x9;&lt;/span&gt;2.???&lt;/div&gt;&lt;div&gt;&lt;span style=&quot;white-space: pre;&quot;&gt;&#x9;&lt;/span&gt;3.???&lt;/div&gt;" style="whiteSpace=wrap;html=1;align=left;" vertex="1" parent="1">
          <mxGeometry x="282.5" y="-150" width="155" height="70" as="geometry" />
        </mxCell>
        <mxCell id="8XYBbkvYi0lceqrSNJq4-83" style="edgeStyle=orthogonalEdgeStyle;rounded=0;orthogonalLoop=1;jettySize=auto;html=1;exitX=1;exitY=0.5;exitDx=0;exitDy=0;entryX=0;entryY=0.5;entryDx=0;entryDy=0;" edge="1" parent="1" source="8XYBbkvYi0lceqrSNJq4-62" target="8XYBbkvYi0lceqrSNJq4-73">
          <mxGeometry relative="1" as="geometry" />
        </mxCell>
        <mxCell id="8XYBbkvYi0lceqrSNJq4-62" value="query1" style="whiteSpace=wrap;html=1;" vertex="1" parent="1">
          <mxGeometry x="470" y="130" width="120" height="60" as="geometry" />
        </mxCell>
        <mxCell id="8XYBbkvYi0lceqrSNJq4-81" style="edgeStyle=orthogonalEdgeStyle;rounded=0;orthogonalLoop=1;jettySize=auto;html=1;" edge="1" parent="1" source="8XYBbkvYi0lceqrSNJq4-64" target="8XYBbkvYi0lceqrSNJq4-73">
          <mxGeometry relative="1" as="geometry" />
        </mxCell>
        <mxCell id="8XYBbkvYi0lceqrSNJq4-64" value="query2" style="whiteSpace=wrap;html=1;" vertex="1" parent="1">
          <mxGeometry x="470" y="215" width="120" height="60" as="geometry" />
        </mxCell>
        <mxCell id="8XYBbkvYi0lceqrSNJq4-85" style="edgeStyle=orthogonalEdgeStyle;rounded=0;orthogonalLoop=1;jettySize=auto;html=1;exitX=1;exitY=0.5;exitDx=0;exitDy=0;entryX=0;entryY=0.5;entryDx=0;entryDy=0;" edge="1" parent="1" source="8XYBbkvYi0lceqrSNJq4-66" target="8XYBbkvYi0lceqrSNJq4-73">
          <mxGeometry relative="1" as="geometry" />
        </mxCell>
        <mxCell id="8XYBbkvYi0lceqrSNJq4-66" value="query3" style="whiteSpace=wrap;html=1;" vertex="1" parent="1">
          <mxGeometry x="470" y="300" width="120" height="60" as="geometry" />
        </mxCell>
        <mxCell id="8XYBbkvYi0lceqrSNJq4-68" value="&lt;b&gt;&lt;font style=&quot;font-size: 14px;&quot;&gt;`&lt;br&gt;`&lt;br&gt;`&lt;/font&gt;&lt;/b&gt;" style="text;html=1;align=center;verticalAlign=middle;whiteSpace=wrap;rounded=0;" vertex="1" parent="1">
          <mxGeometry x="500" y="383.5" width="60" height="30" as="geometry" />
        </mxCell>
        <mxCell id="8XYBbkvYi0lceqrSNJq4-69" value="方法：&lt;br&gt;&lt;span style=&quot;white-space: pre;&quot;&gt;&#x9;&lt;/span&gt;1.已训练大模型（gpt）&lt;div&gt;&lt;span style=&quot;white-space: pre;&quot;&gt;&#x9;&lt;/span&gt;2.???&lt;/div&gt;&lt;div&gt;&lt;span style=&quot;white-space: pre;&quot;&gt;&#x9;&lt;/span&gt;3.???&lt;/div&gt;" style="whiteSpace=wrap;html=1;align=left;" vertex="1" parent="1">
          <mxGeometry x="452.5" y="-40" width="155" height="70" as="geometry" />
        </mxCell>
        <mxCell id="8XYBbkvYi0lceqrSNJq4-73" value="" style="rounded=0;whiteSpace=wrap;html=1;" vertex="1" parent="1">
          <mxGeometry x="690" y="75" width="560" height="340" as="geometry" />
        </mxCell>
        <mxCell id="8XYBbkvYi0lceqrSNJq4-86" value="关键词匹配" style="text;html=1;align=center;verticalAlign=middle;whiteSpace=wrap;rounded=0;" vertex="1" parent="1">
          <mxGeometry x="940" y="90" width="80" height="30" as="geometry" />
        </mxCell>
        <mxCell id="8XYBbkvYi0lceqrSNJq4-87" value="embedding" style="text;html=1;align=center;verticalAlign=middle;whiteSpace=wrap;rounded=0;" vertex="1" parent="1">
          <mxGeometry x="940" y="260" width="80" height="30" as="geometry" />
        </mxCell>
        <mxCell id="8XYBbkvYi0lceqrSNJq4-88" value="" style="endArrow=none;html=1;rounded=0;exitX=0;exitY=0.5;exitDx=0;exitDy=0;entryX=1;entryY=0.5;entryDx=0;entryDy=0;" edge="1" parent="1" source="8XYBbkvYi0lceqrSNJq4-73" target="8XYBbkvYi0lceqrSNJq4-73">
          <mxGeometry width="50" height="50" relative="1" as="geometry">
            <mxPoint x="840" y="220" as="sourcePoint" />
            <mxPoint x="890" y="170" as="targetPoint" />
          </mxGeometry>
        </mxCell>
        <mxCell id="8XYBbkvYi0lceqrSNJq4-90" value="内容解释" style="whiteSpace=wrap;html=1;" vertex="1" parent="1">
          <mxGeometry x="340" y="650" width="70" height="40" as="geometry" />
        </mxCell>
        <mxCell id="8XYBbkvYi0lceqrSNJq4-91" value="条目" style="whiteSpace=wrap;html=1;" vertex="1" parent="1">
          <mxGeometry x="340" y="600" width="70" height="40" as="geometry" />
        </mxCell>
      </root>
    </mxGraphModel>
  </diagram>
</mxfile>
